<?xml version="1.0" encoding="utf-8"?>
<svg version="1.2" baseProfile="tiny" id="logo_eEKS" xmlns="http://www.w3.org/2000/svg" xmlns:xlink="http://www.w3.org/1999/xlink"
	 x="0px" y="0px" width="512px" height="512px" viewBox="0 0 512 512" xml:space="preserve">
<g>
	<path d="M147.208,399.499V124.997h100.214v46.437h-73.026v60.854h67.858v46.25h-67.858v74.523h75.498v46.437H147.208z"/>
	<path d="M273.262,399.499V124.997h27.188v122.194l55.211-122.194h36.742l-50.924,106.987L395.1,399.499h-35.283L322.555,270.5
		l-22.105,46.05v82.949H273.262z"/>
	<path d="M402.236,309.996l26.625-5.243c2.998,35.08,12.809,52.616,29.438,52.616c8.236,0,14.715-3.59,19.436-10.759
		c4.717-7.179,7.076-16.07,7.076-26.674c0-6.239-0.822-11.541-2.469-15.911c-1.65-4.365-4.158-7.95-7.529-10.759
		c-3.369-2.809-11.533-7.514-24.492-14.121c-11.609-5.853-20.109-12.211-25.502-19.072c-5.395-6.858-9.684-15.867-12.867-27.033
		s-4.773-23.167-4.773-36.015c0-14.969,2.039-28.438,6.121-40.413c4.082-11.973,9.721-21.017,16.912-27.126
		c7.191-6.112,16.066-9.169,26.627-9.169c15.879,0,28.273,7.179,37.186,21.533c8.914,14.357,13.633,34.892,14.156,61.604
		l-27.299,2.435c-1.199-14.728-3.785-25.026-7.754-30.896c-3.971-5.866-9.623-8.8-16.965-8.8c-7.34,0-12.994,2.552-16.965,7.653
		c-3.967,5.104-5.953,11.451-5.953,19.04c0,7.466,1.803,13.751,5.404,18.853c3.605,5.104,11.883,10.716,24.84,16.834
		c13.699,6.621,23.604,13.58,29.701,20.883c6.105,7.302,10.764,16.723,13.979,28.268c3.223,11.545,4.832,25.554,4.832,42.031
		c0,23.834-4.402,43.864-13.197,60.09c-8.807,16.227-22.566,24.336-41.291,24.336C424.406,404.18,405.98,372.787,402.236,309.996z"
		/>
	<path d="M88.899,347.215l35.528,7.292c-4.767,16.553-12.168,28.836-22.215,36.85c-10.044,8.015-22.263,12.021-36.657,12.021
		c-19.99,0-35.419-6.682-46.292-20.052C6.42,367.785,0,346.027,0,318.053c0-27.565,6.463-49.636,19.393-66.213
		c10.962-13.99,25.134-20.984,42.51-20.984c19.34,0,34.494,7.15,45.458,21.445c12.617,16.369,18.927,40.504,18.927,72.408
		l-0.155,4.976h-89.52c0.206,13.086,3.138,23.207,8.79,30.366c5.652,7.168,12.476,10.747,20.466,10.747
		C77.383,370.797,85.061,362.938,88.899,347.215z M90.761,302.998c-0.31-12.877-3.052-22.561-8.223-29.053
		c-5.173-6.488-11.326-9.733-18.462-9.733c-7.552,0-13.912,3.376-19.083,10.124c-5.274,6.856-7.861,16.411-7.757,28.662H90.761z"/>
</g>
</svg>
