<?xml version="1.0" encoding="utf-8"?>
<svg version="1.2" baseProfile="tiny" id="logo_eEKS"
	 xmlns="http://www.w3.org/2000/svg" xmlns:xlink="http://www.w3.org/1999/xlink" x="0px" y="0px" width="512px" height="512px"
	 viewBox="0 0 512 512" xml:space="preserve">
<polygon points="0,360.121 0,151.878 43.87,151.878 43.87,168.316 19.214,168.316 19.214,343.684 43.87,343.684 43.87,360.121 "/>
<path d="M73.968,184.753v-21.879h21.879v21.879H73.968z M73.968,327.246V206.632h21.879v120.614H73.968z"/>
<path d="M139.717,206.632h49.423l-24.711,49.312L139.717,206.632z M189.14,327.246h-49.423l24.712-49.311L189.14,327.246z"/>
<polygon points="232.899,327.246 232.899,151.878 254.778,151.878 254.778,265.162 305.867,206.632 329.454,206.632 
	280.584,262.955 339.565,327.246 311.532,327.246 254.778,265.385 254.778,327.246 "/>
<path d="M361.398,323.026v-20.103c14.288,7.107,26.729,10.662,37.317,10.662c6.292,0,11.513-1.703,15.66-5.109
	c4.146-3.404,6.219-7.663,6.219-12.771c0-7.479-5.813-13.66-17.437-18.547l-12.772-5.443c-18.88-7.847-28.32-19.139-28.32-33.874
	c0-10.512,3.72-18.786,11.161-24.822c7.441-6.035,17.641-9.052,30.598-9.052c6.736,0,15.066,0.927,24.99,2.777l4.554,0.888v18.214
	c-12.218-3.626-21.954-5.442-29.21-5.442c-6.369,0-11.458,1.389-15.271,4.165c-3.814,2.777-5.72,6.498-5.72,11.162
	c0,6.591,5.331,12.144,15.992,16.659l10.552,4.442c11.92,5.037,20.361,10.348,25.322,15.938c4.959,5.592,7.441,12.57,7.441,20.937
	c0,10.589-4.184,19.288-12.55,26.099c-8.368,6.814-19.065,10.219-32.098,10.219C387.832,330.023,375.687,327.691,361.398,323.026z"
	/>
<polygon points="512,151.878 512,360.121 468.13,360.121 468.13,343.684 492.786,343.684 492.786,168.316 468.13,168.316 
	468.13,151.878 "/>
</svg>
