<?xml version="1.0" encoding="utf-8"?>
<svg version="1.2" baseProfile="tiny" id="change" xmlns="http://www.w3.org/2000/svg" xmlns:xlink="http://www.w3.org/1999/xlink"
	 x="0px" y="0px" width="32px" height="32px" viewBox="0 0 32 32" xml:space="preserve">
<g>
	<g>
		<path d="M4.902,22.499c-0.389-0.389-0.389-1.025,0-1.414L24.701,1.286c0.389-0.389,1.025-0.389,1.414,0l4.599,4.599
			c0.389,0.389,0.389,1.025,0,1.414L10.915,27.098c-0.389,0.389-1.025,0.389-1.414,0L4.902,22.499z"/>
	</g>
	<g>
		<path d="M8.087,28.512c0.389,0.389,0.272,0.823-0.259,0.966l-6.283,1.685c-0.531,0.143-0.849-0.176-0.707-0.707l1.684-6.283
			c0.142-0.531,0.577-0.647,0.966-0.259L8.087,28.512z"/>
	</g>
</g>
</svg>
