<?xml version="1.0" encoding="utf-8"?>
<svg version="1.2" baseProfile="tiny" id="logo_eEKS"
	 xmlns="http://www.w3.org/2000/svg" xmlns:xlink="http://www.w3.org/1999/xlink" x="0px" y="0px" width="512px" height="208.243px"
	 viewBox="0 0 512 208.243" xml:space="preserve">
<polygon fill="#FAFAFA" points="0,208.243 0,0 43.87,0 43.87,16.438 19.214,16.438 19.214,191.806 43.87,191.806 43.87,208.243 "/>
<path fill="#FAFAFA" d="M73.968,32.875V10.996h21.879v21.879H73.968z M73.968,175.368V54.754h21.879v120.614H73.968z"/>
<path fill="#FAFAFA" d="M139.717,54.754h49.423l-24.711,49.312L139.717,54.754z M189.14,175.368h-49.423l24.712-49.311
	L189.14,175.368z"/>
<polygon fill="#FAFAFA" points="232.899,175.368 232.899,0 254.778,0 254.778,113.284 305.866,54.754 329.453,54.754 
	280.584,111.077 339.565,175.368 311.531,175.368 254.778,113.507 254.778,175.368 "/>
<path fill="#FAFAFA" d="M361.398,171.147v-20.103c14.288,7.107,26.729,10.662,37.317,10.662c6.292,0,11.513-1.703,15.66-5.108
	c4.146-3.404,6.219-7.664,6.219-12.771c0-7.479-5.813-13.66-17.438-18.547l-12.771-5.443c-18.88-7.847-28.32-19.139-28.32-33.874
	c0-10.512,3.72-18.786,11.161-24.822c7.441-6.035,17.641-9.052,30.598-9.052c6.736,0,15.066,0.927,24.99,2.777l4.554,0.888v18.214
	c-12.218-3.626-21.954-5.442-29.21-5.442c-6.369,0-11.458,1.389-15.271,4.165c-3.814,2.777-5.721,6.498-5.721,11.162
	c0,6.591,5.331,12.144,15.992,16.659l10.553,4.442c11.92,5.037,20.36,10.348,25.321,15.938c4.959,5.592,7.441,12.57,7.441,20.938
	c0,10.589-4.185,19.288-12.55,26.1c-8.368,6.813-19.065,10.219-32.099,10.219C387.831,178.146,375.687,175.813,361.398,171.147z"/>
<polygon fill="#FAFAFA" points="512,0 512,208.243 468.13,208.243 468.13,191.806 492.785,191.806 492.785,16.438 468.13,16.438 
	468.13,0 "/>
</svg>
