<?xml version="1.0" encoding="utf-8"?>
<svg version="1.2" baseProfile="tiny" id="check" xmlns="http://www.w3.org/2000/svg" xmlns:xlink="http://www.w3.org/1999/xlink"
	 x="0px" y="0px" width="32px" height="32px" viewBox="0 0 32 32" xml:space="preserve">
<path d="M31.588,27.393c-5.546-2.471-9.793-6.857-13.913-11.435c0.031-0.04,0.065-0.08,0.097-0.119
	C21.545,11.1,25.993,7.062,29.246,1.91c1.006-1.593-2.94-1.262-3.652-0.134c-2.779,4.402-6.399,8.151-9.826,12.057
	C12.021,9.642,8.23,5.514,3.51,2.75C2.419,2.111-1.191,3.698,0.398,4.629c5.061,2.963,9.033,7.48,13.031,11.963
	c-0.164,0.201-0.333,0.397-0.495,0.6c-3.002,3.771-6.87,7.978-8.486,12.608c-0.488,1.399,3.44,0.892,3.913-0.463
	c1.317-3.772,4.265-7.334,7.005-10.594c3.856,4.234,7.9,8.206,13.109,10.529C29.625,29.786,33.204,28.114,31.588,27.393z"/>
</svg>
